<svg width="115" height="42" viewBox="0 0 115 42" fill="none" xmlns="http://www.w3.org/2000/svg">
<path d="M34.948 23.4403H37.9178V24.6075C39.1908 23.2008 40.6454 23.111 41.3729 23.111C43.7367 23.111 44.7368 24.2785 45.1307 24.8172C45.6156 25.5057 45.9186 26.3737 45.9186 28.3193V36.0418H42.9486V29.0378C42.9486 25.8352 41.7364 25.7454 40.6151 25.7454C39.2814 25.7454 37.9178 25.9249 37.9178 29.9955V36.0418H34.948V23.4403Z" fill="#22224C"/>
<path d="M52.7377 26.1339V36.0413H49.7678V26.1339H48.5253V23.4402H49.7678V18.8306H52.7377V23.4402H55.0107V26.1339H52.7377Z" fill="#22224C"/>
<path d="M57.0109 23.4403H59.9807V24.5777C60.3143 24.1885 60.799 23.7695 61.2233 23.53C61.7991 23.2008 62.3749 23.111 63.0414 23.111C63.7689 23.111 64.5568 23.231 65.3751 23.7097L64.163 26.3737C63.4962 25.9547 62.9508 25.9249 62.6478 25.9249C62.0112 25.9249 61.3749 26.0147 60.799 26.6132C59.9807 27.4811 59.9807 28.6783 59.9807 29.5166V36.0416H57.0109V23.4403Z" fill="#22224C"/>
<path d="M68.5571 20.1178C69.6116 20.1178 70.4664 19.2736 70.4664 18.2321C70.4664 17.1907 69.6116 16.3464 68.5571 16.3464C67.5026 16.3464 66.6478 17.1907 66.6478 18.2321C66.6478 19.2736 67.5026 20.1178 68.5571 20.1178Z" fill="#345AA6"/>
<path d="M70.042 23.4402H67.0719V36.0414H70.042V23.4402Z" fill="#22224C"/>
<path d="M76.77 14.221V27.6606L80.9219 23.4402H84.8614L79.3763 28.6781L85.2555 36.0413H81.4977L77.3155 30.6535L76.77 31.1922V36.0413H73.7999V14.221H76.77Z" fill="#22224C"/>
<path d="M98.2871 33.168C97.7417 34.1257 96.9537 34.9637 96.1356 35.4726C95.1052 36.1311 93.7414 36.4304 92.3776 36.4304C90.6804 36.4304 89.2865 36.0114 88.0741 34.8139C86.8617 33.6165 86.1952 31.8805 86.1952 29.9948C86.1952 28.0491 86.892 26.1637 88.2255 24.8167C89.2863 23.7692 90.6804 23.1105 92.4986 23.1105C94.5291 23.1105 95.8324 23.9787 96.59 24.757C98.2266 26.4332 98.378 28.7678 98.378 30.0848V30.444H89.2255C89.2863 31.342 89.6801 32.3597 90.3167 32.9882C91.0136 33.6765 91.8623 33.7962 92.5895 33.7962C93.4078 33.7962 94.0138 33.6167 94.6197 33.1677C95.1351 32.7785 95.5292 32.2695 95.8018 31.7908L98.2871 33.168ZM95.3477 28.0494C95.2262 27.3611 94.8931 26.7624 94.4382 26.3432C94.0441 25.9839 93.408 25.6249 92.4381 25.6249C91.4077 25.6249 90.7407 26.0439 90.3468 26.4332C89.9229 26.8224 89.5893 27.4209 89.4377 28.0494H95.3477Z" fill="#22224C"/>
<path d="M2.62872 36.7127H3.20766V40.0987H2.62872V37.6296L1.06713 40.0987H0.488191V36.7127H1.06713V39.1849L2.62872 36.7127ZM6.90352 40.0987H6.32457V38.6529H4.76925V40.0987H4.18717V36.7127H4.76925V38.1804H6.32457V36.7127H6.90352V40.0987ZM10.3521 37.1821H9.21616V40.0987H8.63722V37.1821H7.52314V36.7127H10.3521V37.1821ZM12.0702 40.1613C11.6112 40.1613 11.2378 40.0111 10.9499 39.7106C10.662 39.4081 10.518 39.0044 10.518 38.4996V38.3932C10.518 38.0573 10.5816 37.7579 10.7089 37.495C10.8383 37.2301 11.0177 37.0235 11.2472 36.8754C11.4787 36.7252 11.7291 36.6501 11.9982 36.6501C12.4384 36.6501 12.7806 36.7951 13.0247 37.0851C13.2688 37.375 13.3908 37.7902 13.3908 38.3306V38.5715H11.0969C11.1053 38.9053 11.2023 39.1755 11.388 39.3821C11.5758 39.5865 11.8136 39.6887 12.1015 39.6887C12.306 39.6887 12.4791 39.647 12.621 39.5636C12.7628 39.4801 12.887 39.3695 12.9934 39.2318L13.347 39.5072C13.0633 39.9433 12.6377 40.1613 12.0702 40.1613ZM11.9982 37.1257C11.7646 37.1257 11.5684 37.2113 11.4099 37.3824C11.2513 37.5513 11.1533 37.7892 11.1157 38.0959H12.8119V38.052C12.7952 37.7579 12.7159 37.5305 12.574 37.3698C12.4322 37.2071 12.2402 37.1257 11.9982 37.1257ZM16.9239 38.4432C16.9239 38.9585 16.8061 39.3737 16.5703 39.6887C16.3346 40.0038 16.0154 40.1613 15.6127 40.1613C15.2017 40.1613 14.8783 40.0309 14.6426 39.7701V41.4005H14.0636V36.7127H14.5925L14.6207 37.0882C14.8564 36.7961 15.184 36.6501 15.6033 36.6501C16.0102 36.6501 16.3314 36.8034 16.5672 37.1101C16.805 37.4168 16.9239 37.8434 16.9239 38.39V38.4432ZM16.345 38.3775C16.345 37.9957 16.2636 37.6943 16.1009 37.4731C15.9382 37.252 15.7149 37.1414 15.4312 37.1414C15.0807 37.1414 14.8178 37.2968 14.6426 37.6077V39.2256C14.8158 39.5344 15.0807 39.6887 15.4375 39.6887C15.7149 39.6887 15.935 39.5792 16.0978 39.3601C16.2626 39.139 16.345 38.8115 16.345 38.3775ZM20.4289 40.0987H19.85V38.6529H18.2946V40.0987H17.7126V36.7127H18.2946V38.1804H19.85V36.7127H20.4289V40.0987ZM22.7666 40.1613C22.3076 40.1613 21.9342 40.0111 21.6462 39.7106C21.3583 39.4081 21.2144 39.0044 21.2144 38.4996V38.3932C21.2144 38.0573 21.278 37.7579 21.4053 37.495C21.5346 37.2301 21.7141 37.0235 21.9435 36.8754C22.1751 36.7252 22.4255 36.6501 22.6946 36.6501C23.1348 36.6501 23.477 36.7951 23.7211 37.0851C23.9652 37.375 24.0872 37.7902 24.0872 38.3306V38.5715H21.7933C21.8017 38.9053 21.8987 39.1755 22.0844 39.3821C22.2721 39.5865 22.51 39.6887 22.7979 39.6887C23.0023 39.6887 23.1755 39.647 23.3174 39.5636C23.4592 39.4801 23.5834 39.3695 23.6898 39.2318L24.0434 39.5072C23.7597 39.9433 23.3341 40.1613 22.7666 40.1613ZM22.6946 37.1257C22.4609 37.1257 22.2648 37.2113 22.1063 37.3824C21.9477 37.5513 21.8497 37.7892 21.8121 38.0959H23.5083V38.052C23.4916 37.7579 23.4123 37.5305 23.2704 37.3698C23.1286 37.2071 22.9366 37.1257 22.6946 37.1257ZM27.2385 37.1821H26.1026V40.0987H25.5236V37.1821H24.4095V36.7127H27.2385V37.1821ZM29.0067 38.3994H27.4795V37.9269H29.0067V38.3994ZM31.5227 39.332L32.6744 36.7127H33.3972V40.0987H32.8183V37.6358L31.723 40.0987H31.3224L30.2052 37.5826V40.0987H29.6263V36.7127H30.3774L31.5227 39.332ZM36.4203 40.0987C36.3869 40.0319 36.3598 39.913 36.3389 39.7419C36.0698 40.0215 35.7485 40.1613 35.375 40.1613C35.0412 40.1613 34.7669 40.0674 34.552 39.8796C34.3392 39.6898 34.2328 39.4499 34.2328 39.1599C34.2328 38.8073 34.3663 38.534 34.6334 38.34C34.9025 38.1438 35.2801 38.0458 35.7662 38.0458H36.3295V37.7798C36.3295 37.5774 36.269 37.4168 36.148 37.2979C36.027 37.1769 35.8486 37.1163 35.6129 37.1163C35.4063 37.1163 35.2332 37.1685 35.0934 37.2728C34.9536 37.3771 34.8837 37.5034 34.8837 37.6515H34.3017C34.3017 37.4825 34.3611 37.3198 34.48 37.1633C34.601 37.0047 34.7638 36.8796 34.9682 36.7878C35.1748 36.696 35.4011 36.6501 35.6473 36.6501C36.0374 36.6501 36.3431 36.7481 36.5642 36.9442C36.7854 37.1383 36.9001 37.4063 36.9085 37.7485V39.3069C36.9085 39.6178 36.9481 39.865 37.0274 40.0486V40.0987H36.4203ZM35.4595 39.6574C35.641 39.6574 35.8132 39.6105 35.9759 39.5166C36.1386 39.4227 36.2565 39.3007 36.3295 39.1505V38.4557H35.8758C35.1664 38.4557 34.8117 38.6633 34.8117 39.0785C34.8117 39.26 34.8723 39.4019 34.9933 39.5041C35.1143 39.6063 35.2697 39.6574 35.4595 39.6574ZM40.0035 37.1915H38.4419V40.0987H37.8598V36.7127H40.0035V37.1915ZM42.5978 40.0987C42.5644 40.0319 42.5373 39.913 42.5164 39.7419C42.2473 40.0215 41.926 40.1613 41.5525 40.1613C41.2187 40.1613 40.9444 40.0674 40.7295 39.8796C40.5167 39.6898 40.4103 39.4499 40.4103 39.1599C40.4103 38.8073 40.5438 38.534 40.8109 38.34C41.08 38.1438 41.4576 38.0458 41.9437 38.0458H42.507V37.7798C42.507 37.5774 42.4465 37.4168 42.3255 37.2979C42.2045 37.1769 42.0261 37.1163 41.7904 37.1163C41.5838 37.1163 41.4107 37.1685 41.2709 37.2728C41.1311 37.3771 41.0612 37.5034 41.0612 37.6515H40.4791C40.4791 37.4825 40.5386 37.3198 40.6575 37.1633C40.7785 37.0047 40.9413 36.8796 41.1457 36.7878C41.3523 36.696 41.5786 36.6501 41.8248 36.6501C42.2149 36.6501 42.5206 36.7481 42.7417 36.9442C42.9629 37.1383 43.0776 37.4063 43.086 37.7485V39.3069C43.086 39.6178 43.1256 39.865 43.2049 40.0486V40.0987H42.5978ZM41.637 39.6574C41.8185 39.6574 41.9907 39.6105 42.1534 39.5166C42.3161 39.4227 42.434 39.3007 42.507 39.1505V38.4557H42.0532C41.3439 38.4557 40.9892 38.6633 40.9892 39.0785C40.9892 39.26 41.0497 39.4019 41.1707 39.5041C41.2918 39.6063 41.4472 39.6574 41.637 39.6574ZM45.8555 37.639C45.8555 37.4804 45.795 37.3552 45.674 37.2634C45.553 37.1695 45.3871 37.1226 45.1764 37.1226C44.972 37.1226 44.8009 37.1758 44.6632 37.2822C44.5276 37.3886 44.4598 37.5138 44.4598 37.6577H43.884C43.884 37.3636 44.0071 37.1226 44.2532 36.9348C44.4994 36.7471 44.8071 36.6532 45.1764 36.6532C45.5728 36.6532 45.8816 36.7387 46.1027 36.9098C46.3239 37.0788 46.4344 37.3208 46.4344 37.6358C46.4344 37.7881 46.3885 37.9279 46.2967 38.0552C46.205 38.1824 46.0746 38.2836 45.9056 38.3587C46.2999 38.4923 46.497 38.7551 46.497 39.1473C46.497 39.4582 46.3771 39.7044 46.1371 39.8859C45.8972 40.0674 45.577 40.1582 45.1764 40.1582C44.7863 40.1582 44.4639 40.0632 44.2094 39.8734C43.957 39.6814 43.8308 39.4227 43.8308 39.0973H44.4066C44.4066 39.2621 44.4796 39.404 44.6256 39.5229C44.7738 39.6397 44.9574 39.6981 45.1764 39.6981C45.3976 39.6981 45.5759 39.647 45.7115 39.5448C45.8472 39.4426 45.915 39.3101 45.915 39.1473C45.915 38.9575 45.8576 38.8219 45.7428 38.7405C45.6302 38.6571 45.4539 38.6153 45.214 38.6153H44.635V38.1272H45.264C45.6583 38.1167 45.8555 37.954 45.8555 37.639ZM49.4387 36.7127H50.0176V40.0987H49.4387V37.6296L47.8771 40.0987H47.2982V36.7127H47.8771V39.1849L49.4387 36.7127ZM53.7135 40.0987H53.1345V38.6529H51.5792V40.0987H50.9971V36.7127H51.5792V38.1804H53.1345V36.7127H53.7135V40.0987ZM57.425 37.1257C57.2185 37.1257 57.039 37.1915 56.8867 37.3229C56.7365 37.4543 56.6614 37.6098 56.6614 37.7892H56.1106C56.1106 37.5952 56.1722 37.4095 56.2953 37.2321C56.4184 37.0548 56.5821 36.914 56.7866 36.8097C56.991 36.7033 57.2038 36.6501 57.425 36.6501C57.8652 36.6501 58.2209 36.8097 58.4921 37.1289C58.7654 37.446 58.9021 37.8612 58.9021 38.3744V38.4714C58.9021 38.7885 58.8395 39.0785 58.7143 39.3414C58.5912 39.6022 58.417 39.8045 58.1917 39.9485C57.9685 40.0903 57.7129 40.1613 57.425 40.1613C57.0495 40.1613 56.7365 40.0445 56.4862 39.8108C56.2358 39.5771 56.1106 39.2861 56.1106 38.9377H56.6614C56.6614 39.1505 56.7355 39.3299 56.8836 39.4759C57.0317 39.6199 57.2122 39.6919 57.425 39.6919C57.6733 39.6919 57.8777 39.5959 58.0384 39.404C58.199 39.212 58.2918 38.9481 58.3169 38.6122H57.0463V38.1365H58.3106C58.2814 37.8319 58.1886 37.5878 58.0321 37.4043C57.8756 37.2186 57.6733 37.1257 57.425 37.1257ZM62.4164 36.7127V40.0987H61.8344V37.1915H60.6827L60.6139 38.4589C60.5763 39.0409 60.4783 39.4572 60.3197 39.7075C60.1632 39.9579 59.9139 40.0883 59.5718 40.0987H59.3402V39.5886L59.5061 39.5761C59.6938 39.5552 59.8284 39.4467 59.9098 39.2506C59.9911 39.0545 60.0433 38.6915 60.0662 38.1616L60.1288 36.7127H62.4164ZM64.751 40.1613C64.292 40.1613 63.9186 40.0111 63.6306 39.7106C63.3427 39.4081 63.1988 39.0044 63.1988 38.4996V38.3932C63.1988 38.0573 63.2624 37.7579 63.3897 37.495C63.519 37.2301 63.6985 37.0235 63.9279 36.8754C64.1595 36.7252 64.4099 36.6501 64.679 36.6501C65.1192 36.6501 65.4614 36.7951 65.7055 37.0851C65.9496 37.375 66.0716 37.7902 66.0716 38.3306V38.5715H63.7777C63.7861 38.9053 63.8831 39.1755 64.0688 39.3821C64.2565 39.5865 64.4944 39.6887 64.7823 39.6887C64.9867 39.6887 65.1599 39.647 65.3018 39.5636C65.4436 39.4801 65.5678 39.3695 65.6742 39.2318L66.0278 39.5072C65.7441 39.9433 65.3185 40.1613 64.751 40.1613ZM64.679 37.1257C64.4453 37.1257 64.2492 37.2113 64.0907 37.3824C63.9321 37.5513 63.8341 37.7892 63.7965 38.0959H65.4927V38.052C65.476 37.7579 65.3967 37.5305 65.2548 37.3698C65.113 37.2071 64.921 37.1257 64.679 37.1257ZM67.799 38.656H67.3766V40.0987H66.7945V36.7127H67.3766V38.1459H67.7552L68.8943 36.7127H69.5953L68.2559 38.34L69.708 40.0987H68.9726L67.799 38.656ZM72.7216 37.1821H71.5857V40.0987H71.0067V37.1821H69.8926V36.7127H72.7216V37.1821ZM76.1452 38.4432C76.1452 38.9585 76.0274 39.3737 75.7916 39.6887C75.5559 40.0038 75.2366 40.1613 74.834 40.1613C74.423 40.1613 74.0996 40.0309 73.8639 39.7701V41.4005H73.2849V36.7127H73.8138L73.842 37.0882C74.0777 36.7961 74.4053 36.6501 74.8246 36.6501C75.2314 36.6501 75.5527 36.8034 75.7885 37.1101C76.0263 37.4168 76.1452 37.8434 76.1452 38.39V38.4432ZM75.5663 38.3775C75.5663 37.9957 75.4849 37.6943 75.3222 37.4731C75.1595 37.252 74.9362 37.1414 74.6525 37.1414C74.302 37.1414 74.0391 37.2968 73.8639 37.6077V39.2256C74.037 39.5344 74.302 39.6887 74.6587 39.6887C74.9362 39.6887 75.1563 39.5792 75.3191 39.3601C75.4839 39.139 75.5663 38.8115 75.5663 38.3775ZM76.7304 38.3744C76.7304 38.0427 76.7951 37.7443 76.9245 37.4794C77.0559 37.2144 77.2374 37.0099 77.469 36.866C77.7026 36.722 77.9686 36.6501 78.267 36.6501C78.728 36.6501 79.1004 36.8097 79.3842 37.1289C79.67 37.4481 79.8129 37.8726 79.8129 38.4025V38.4432C79.8129 38.7729 79.7493 39.0691 79.622 39.332C79.4968 39.5928 79.3164 39.7962 79.0806 39.9422C78.847 40.0883 78.5778 40.1613 78.2732 40.1613C77.8143 40.1613 77.4418 40.0017 77.156 39.6825C76.8723 39.3633 76.7304 38.9408 76.7304 38.4151V38.3744ZM77.3125 38.4432C77.3125 38.8188 77.3991 39.1202 77.5722 39.3476C77.7475 39.575 77.9812 39.6887 78.2732 39.6887C78.5674 39.6887 78.8011 39.574 78.9742 39.3445C79.1474 39.1129 79.234 38.7896 79.234 38.3744C79.234 38.003 79.1453 37.7026 78.968 37.4731C78.7927 37.2415 78.5591 37.1257 78.267 37.1257C77.9812 37.1257 77.7506 37.2394 77.5754 37.4668C77.4001 37.6943 77.3125 38.0197 77.3125 38.4432ZM82.9862 37.1821H81.8502V40.0987H81.2712V37.1821H80.1572V36.7127H82.9862V37.1821ZM86.4097 38.4432C86.4097 38.9585 86.2919 39.3737 86.0561 39.6887C85.8204 40.0038 85.5012 40.1613 85.0985 40.1613C84.6875 40.1613 84.3641 40.0309 84.1284 39.7701V41.4005H83.5494V36.7127H84.0783L84.1065 37.0882C84.3422 36.7961 84.6698 36.6501 85.0891 36.6501C85.496 36.6501 85.8172 36.8034 86.053 37.1101C86.2908 37.4168 86.4097 37.8434 86.4097 38.39V38.4432ZM85.8308 38.3775C85.8308 37.9957 85.7494 37.6943 85.5867 37.4731C85.424 37.252 85.2007 37.1414 84.917 37.1414C84.5665 37.1414 84.3036 37.2968 84.1284 37.6077V39.2256C84.3016 39.5344 84.5665 39.6887 84.9233 39.6887C85.2007 39.6887 85.4208 39.5792 85.5836 39.3601C85.7484 39.139 85.8308 38.8115 85.8308 38.3775ZM89.2388 40.0987C89.2054 40.0319 89.1782 39.913 89.1574 39.7419C88.8883 40.0215 88.567 40.1613 88.1935 40.1613C87.8597 40.1613 87.5854 40.0674 87.3705 39.8796C87.1577 39.6898 87.0513 39.4499 87.0513 39.1599C87.0513 38.8073 87.1848 38.534 87.4518 38.34C87.721 38.1438 88.0986 38.0458 88.5847 38.0458H89.148V37.7798C89.148 37.5774 89.0875 37.4168 88.9665 37.2979C88.8455 37.1769 88.6671 37.1163 88.4314 37.1163C88.2248 37.1163 88.0517 37.1685 87.9119 37.2728C87.7721 37.3771 87.7022 37.5034 87.7022 37.6515H87.1201C87.1201 37.4825 87.1796 37.3198 87.2985 37.1633C87.4195 37.0047 87.5822 36.8796 87.7867 36.7878C87.9932 36.696 88.2196 36.6501 88.4658 36.6501C88.8559 36.6501 89.1616 36.7481 89.3827 36.9442C89.6039 37.1383 89.7186 37.4063 89.7269 37.7485V39.3069C89.7269 39.6178 89.7666 39.865 89.8459 40.0486V40.0987H89.2388ZM88.278 39.6574C88.4595 39.6574 88.6316 39.6105 88.7944 39.5166C88.9571 39.4227 89.075 39.3007 89.148 39.1505V38.4557H88.6942C87.9849 38.4557 87.6302 38.6633 87.6302 39.0785C87.6302 39.26 87.6907 39.4019 87.8117 39.5041C87.9327 39.6063 88.0882 39.6574 88.278 39.6574ZM93.4009 40.0987H92.8219V38.6529H91.2666V40.0987H90.6845V36.7127H91.2666V38.1804H92.8219V36.7127H93.4009V40.0987ZM95.6916 39.6887C95.8982 39.6887 96.0786 39.6262 96.233 39.501C96.3874 39.3758 96.4729 39.2193 96.4896 39.0316H97.0373C97.0269 39.2256 96.9601 39.4102 96.837 39.5855C96.7139 39.7607 96.5491 39.9005 96.3426 40.0048C96.1381 40.1091 95.9211 40.1613 95.6916 40.1613C95.2306 40.1613 94.8634 40.0079 94.5901 39.7013C94.3189 39.3925 94.1832 38.9711 94.1832 38.437V38.34C94.1832 38.0103 94.2437 37.7172 94.3648 37.4606C94.4858 37.204 94.6589 37.0047 94.8842 36.8629C95.1116 36.721 95.3797 36.6501 95.6885 36.6501C96.0682 36.6501 96.3832 36.7638 96.6336 36.9912C96.886 37.2186 97.0206 37.5138 97.0373 37.8768H96.4896C96.4729 37.6577 96.3895 37.4783 96.2393 37.3385C96.0912 37.1967 95.9076 37.1257 95.6885 37.1257C95.3943 37.1257 95.1659 37.2321 95.0032 37.4449C94.8425 37.6557 94.7622 37.9613 94.7622 38.3619V38.4714C94.7622 38.8615 94.8425 39.162 95.0032 39.3727C95.1638 39.5834 95.3933 39.6887 95.6916 39.6887ZM100.458 40.0987H99.8788V37.1915H98.3203V40.0987H97.7383V36.7127H100.458V40.0987ZM101.234 38.3744C101.234 38.0427 101.299 37.7443 101.428 37.4794C101.559 37.2144 101.741 37.0099 101.972 36.866C102.206 36.722 102.472 36.6501 102.77 36.6501C103.231 36.6501 103.604 36.8097 103.888 37.1289C104.173 37.4481 104.316 37.8726 104.316 38.4025V38.4432C104.316 38.7729 104.253 39.0691 104.125 39.332C104 39.5928 103.82 39.7962 103.584 39.9422C103.35 40.0883 103.081 40.1613 102.777 40.1613C102.318 40.1613 101.945 40.0017 101.659 39.6825C101.376 39.3633 101.234 38.9408 101.234 38.4151V38.3744ZM101.816 38.4432C101.816 38.8188 101.902 39.1202 102.076 39.3476C102.251 39.575 102.485 39.6887 102.777 39.6887C103.071 39.6887 103.304 39.574 103.478 39.3445C103.651 39.1129 103.737 38.7896 103.737 38.3744C103.737 38.003 103.649 37.7026 103.471 37.4731C103.296 37.2415 103.062 37.1257 102.77 37.1257C102.485 37.1257 102.254 37.2394 102.079 37.4668C101.904 37.6943 101.816 38.0197 101.816 38.4432ZM107.903 38.4432C107.903 38.9585 107.785 39.3737 107.549 39.6887C107.313 40.0038 106.994 40.1613 106.591 40.1613C106.18 40.1613 105.857 40.0309 105.621 39.7701V41.4005H105.042V36.7127H105.571L105.599 37.0882C105.835 36.7961 106.163 36.6501 106.582 36.6501C106.989 36.6501 107.31 36.8034 107.546 37.1101C107.784 37.4168 107.903 37.8434 107.903 38.39V38.4432ZM107.324 38.3775C107.324 37.9957 107.242 37.6943 107.08 37.4731C106.917 37.252 106.694 37.1414 106.41 37.1414C106.059 37.1414 105.797 37.2968 105.621 37.6077V39.2256C105.794 39.5344 106.059 39.6887 106.416 39.6887C106.694 39.6887 106.914 39.5792 107.076 39.3601C107.241 39.139 107.324 38.8115 107.324 38.3775ZM110.907 37.1821H109.771V40.0987H109.192V37.1821H108.078V36.7127H110.907V37.1821ZM113.511 40.0987C113.477 40.0319 113.45 39.913 113.429 39.7419C113.16 40.0215 112.839 40.1613 112.465 40.1613C112.132 40.1613 111.857 40.0674 111.642 39.8796C111.43 39.6898 111.323 39.4499 111.323 39.1599C111.323 38.8073 111.457 38.534 111.724 38.34C111.993 38.1438 112.37 38.0458 112.857 38.0458H113.42V37.7798C113.42 37.5774 113.359 37.4168 113.238 37.2979C113.117 37.1769 112.939 37.1163 112.703 37.1163C112.497 37.1163 112.323 37.1685 112.184 37.2728C112.044 37.3771 111.974 37.5034 111.974 37.6515H111.392C111.392 37.4825 111.451 37.3198 111.57 37.1633C111.691 37.0047 111.854 36.8796 112.059 36.7878C112.265 36.696 112.491 36.6501 112.738 36.6501C113.128 36.6501 113.433 36.7481 113.655 36.9442C113.876 37.1383 113.99 37.4063 113.999 37.7485V39.3069C113.999 39.6178 114.038 39.865 114.118 40.0486V40.0987H113.511ZM112.55 39.6574C112.731 39.6574 112.903 39.6105 113.066 39.5166C113.229 39.4227 113.347 39.3007 113.42 39.1505V38.4557H112.966C112.257 38.4557 111.902 38.6633 111.902 39.0785C111.902 39.26 111.963 39.4019 112.084 39.5041C112.205 39.6063 112.36 39.6574 112.55 39.6574Z" fill="#345AA6"/>
<path d="M24.7076 20.298C25.0173 20.298 25.2683 20.0501 25.2683 19.7443C25.2683 19.4385 25.0173 19.1906 24.7076 19.1906C24.398 19.1906 24.147 19.4385 24.147 19.7443C24.147 20.0501 24.398 20.298 24.7076 20.298Z" fill="#22224C"/>
<path d="M0 35.9869H7.27474L16.3088 26.6625H26.3004V35.9869H32.3155V0L0 35.9869ZM23.271 22.7967C20.8597 22.7967 19.0934 21.6747 19.0934 20.9288C19.0934 20.2403 22.1118 17.6406 24.4834 17.4043V15.3384L21.4839 14.2448V13.871V13.3727L24.988 15.0062L24.8763 17.387C25.3423 17.3925 25.7304 17.4664 26.0553 17.5893L26.4982 15.6259L23.8113 13.9142L23.8935 13.5494L23.8947 13.5501L24.001 13.0709L27.0701 15.4069L26.4387 17.7336L26.4569 17.7864C27.4284 18.3819 27.6368 19.5293 27.6368 20.4468C27.6371 21.7447 25.6822 22.7967 23.271 22.7967Z" fill="#22224C"/>
</svg>
