<svg width="60" height="60" viewBox="0 0 60 60" fill="none" xmlns="http://www.w3.org/2000/svg">
<path d="M17.5 27.5V32.5H42.5V27.5C42.5 22.85 45.7 18.975 50 17.85V15C50 10.875 46.625 7.5 42.5 7.5H17.5C13.375 7.5 10 10.875 10 15V17.85C14.3 18.975 17.5 22.85 17.5 27.5Z" fill="#4A1B6E"/>
<path d="M52.5 22.5C49.75 22.5 47.5 24.75 47.5 27.5V37.5H12.5V27.5C12.5 24.75 10.25 22.5 7.5 22.5C4.75 22.5 2.5 24.75 2.5 27.5V40C2.5 44.125 5.875 47.5 10 47.5V50C10 51.375 11.125 52.5 12.5 52.5C13.875 52.5 15 51.375 15 50V47.5H45V50C45 51.375 46.125 52.5 47.5 52.5C48.875 52.5 50 51.375 50 50V47.5C54.125 47.5 57.5 44.125 57.5 40V27.5C57.5 24.75 55.25 22.5 52.5 22.5Z" fill="#4A1B6E"/>
</svg>
