<svg width="60" height="60" viewBox="0 0 60 60" fill="none" xmlns="http://www.w3.org/2000/svg">
<path d="M30 5C16.2 5 5 16.2 5 30C5 43.8 16.2 55 30 55C43.8 55 55 43.8 55 30C55 16.2 43.8 5 30 5ZM32.2 44.4V47.5H27.825V44.275C25.975 43.825 21.85 42.35 20.275 36.875L24.4 35.2C24.55 35.75 25.85 40.425 30.4 40.425C32.725 40.425 35.35 39.225 35.35 36.4C35.35 34 33.6 32.75 29.65 31.325C26.9 30.35 21.275 28.75 21.275 23.05C21.275 22.8 21.3 17.05 27.825 15.65V12.5H32.2V15.6C36.8 16.4 38.475 20.075 38.85 21.175L34.9 22.85C34.625 21.975 33.425 19.5 30.15 19.5C28.4 19.5 25.625 20.425 25.625 22.975C25.625 25.35 27.775 26.25 32.225 27.725C38.225 29.8 39.75 32.85 39.75 36.35C39.75 42.925 33.5 44.175 32.2 44.4Z" fill="#4A1B6E"/>
</svg>
