<svg width="60" height="60" viewBox="0 0 60 60" fill="none" xmlns="http://www.w3.org/2000/svg">
<path d="M42.5 27.5C43.35 27.5 44.175 27.6 45 27.725V15.675L26.25 7.5L7.5 15.675V27.95C7.5 39.3 15.5 49.925 26.25 52.5C27.625 52.175 28.95 51.7 30.25 51.125C28.525 48.675 27.5 45.7 27.5 42.5C27.5 34.225 34.225 27.5 42.5 27.5Z" fill="#F36E0D"/>
<path d="M42.5 32.5C36.975 32.5 32.5 36.975 32.5 42.5C32.5 48.025 36.975 52.5 42.5 52.5C48.025 52.5 52.5 48.025 52.5 42.5C52.5 36.975 48.025 32.5 42.5 32.5ZM42.5 35.95C44.05 35.95 45.3 37.225 45.3 38.75C45.3 40.275 44.025 41.55 42.5 41.55C40.975 41.55 39.7 40.275 39.7 38.75C39.7 37.225 40.95 35.95 42.5 35.95ZM42.5 49.375C40.175 49.375 38.15 48.225 36.9 46.45C37.025 44.65 40.675 43.75 42.5 43.75C44.325 43.75 47.975 44.65 48.1 46.45C46.85 48.225 44.825 49.375 42.5 49.375Z" fill="#F36E0D"/>
</svg>
