<svg width="60" height="60" viewBox="0 0 60 60" fill="none" xmlns="http://www.w3.org/2000/svg">
<path d="M47.85 32.3498C47.95 31.5998 48 30.8248 48 29.9998C48 29.1998 47.95 28.3998 47.825 27.6498L52.9 23.6998C53.35 23.3498 53.475 22.6748 53.2 22.1748L48.4 13.8748C48.1 13.3248 47.475 13.1498 46.925 13.3248L40.95 15.7248C39.7 14.7748 38.375 13.9748 36.9 13.3748L36 7.02476C35.9 6.42476 35.4 5.99976 34.8 5.99976H25.2C24.6 5.99976 24.125 6.42476 24.025 7.02476L23.125 13.3748C21.65 13.9748 20.3 14.7998 19.075 15.7248L13.1 13.3248C12.55 13.1248 11.925 13.3248 11.625 13.8748L6.85003 22.1748C6.55003 22.6998 6.65003 23.3498 7.15003 23.6998L12.225 27.6498C12.1 28.3998 12 29.2248 12 29.9998C12 30.7748 12.05 31.5998 12.175 32.3498L7.10003 36.2998C6.65003 36.6498 6.52503 37.3248 6.80003 37.8248L11.6 46.1248C11.9 46.6748 12.525 46.8498 13.075 46.6748L19.05 44.2748C20.3 45.2248 21.625 46.0248 23.1 46.6248L24 52.9748C24.125 53.5748 24.6 53.9998 25.2 53.9998H34.8C35.4 53.9998 35.9 53.5748 35.975 52.9748L36.875 46.6248C38.35 46.0248 39.7 45.2248 40.925 44.2748L46.9 46.6748C47.45 46.8748 48.075 46.6748 48.375 46.1248L53.175 37.8248C53.475 37.2748 53.35 36.6498 52.875 36.2998L47.85 32.3498ZM30 38.9998C25.05 38.9998 21 34.9498 21 29.9998C21 25.0498 25.05 20.9998 30 20.9998C34.95 20.9998 39 25.0498 39 29.9998C39 34.9498 34.95 38.9998 30 38.9998Z" fill="#4A1B6E"/>
</svg>
